<?xml version="1.0" encoding="utf-8"?>
<!-- Generator: Adobe Illustrator 19.0.0, SVG Export Plug-In . SVG Version: 6.00 Build 0)  -->
<svg version="1.1" id="Layer_1" xmlns="http://www.w3.org/2000/svg" xmlns:xlink="http://www.w3.org/1999/xlink" x="0px" y="0px"
	 viewBox="-143 145 512 512" style="enable-background:new -143 145 512 512;" xml:space="preserve">
<style type="text/css">
	.st0{fill:#FFFFFF;}
</style>
<g>
	<g>
		<path class="st0" d="M165.8,271.9l6.1-12.1c1.3-2.6,1.2-5.8-0.4-8.3c-0.4-0.6-0.9-1.2-1.4-1.7l26.8-40.3c0.2-0.3,0.3-0.6,0.4-0.9
			c0.1-0.3,0.3-0.6,0.4-0.9c0.4-0.9,0.6-1.9,0.6-2.9c0,0,0,0,0,0c0,0,0,0,0,0c0-1-0.2-2-0.6-2.9c-0.1-0.3-0.3-0.6-0.4-0.9
			c-0.2-0.3-0.2-0.6-0.4-0.9l-34.1-51.2c-1.6-2.4-4.2-3.8-7.1-3.8H70.3c-2.9,0-5.5,1.4-7.1,3.8L29.1,200c-0.2,0.3-0.3,0.6-0.4,0.9
			c-0.1,0.3-0.3,0.6-0.4,0.9c-0.4,0.9-0.6,1.9-0.6,2.9c0,0,0,0,0,0s0,0,0,0c0,1,0.2,2,0.6,2.9c0.1,0.3,0.3,0.6,0.4,0.9
			c0.2,0.3,0.2,0.6,0.4,0.9l26.8,40.3c-0.5,0.5-1,1.1-1.4,1.7c-1.6,2.5-1.7,5.7-0.4,8.3l6.1,12.1C-23.5,295.3-83.3,372.9-83.3,460.7
			C-83.3,569,4.8,657,113,657c108.2,0,196.3-88,196.3-196.3C309.3,372.9,249.5,295.3,165.8,271.9z M150.4,264.5l-25.6,51.2h-23.6
			l-25.6-51.2C75.6,264.5,150.4,264.5,150.4,264.5z M113,597.3c-75.3,0-136.5-61.3-136.5-136.5c0-65.4,47.4-121.8,111.3-133.9
			l0.6,1.1c1.5,2.9,4.4,4.7,7.6,4.7h34.1c3.2,0,6.2-1.8,7.6-4.7l0.6-1.1c63.8,12,111.3,68.5,111.3,133.9
			C249.5,536,188.3,597.3,113,597.3z"/>
	</g>
</g>
</svg>
