<?xml version="1.0" encoding="utf-8"?>
<!-- Generator: Adobe Illustrator 19.0.0, SVG Export Plug-In . SVG Version: 6.00 Build 0)  -->
<svg version="1.1" id="Capa_1" xmlns="http://www.w3.org/2000/svg" xmlns:xlink="http://www.w3.org/1999/xlink" x="0px" y="0px"
	 viewBox="-387 388.6 24.4 24.4" style="enable-background:new -387 388.6 24.4 24.4;" xml:space="preserve">
<style type="text/css">
	.st0{fill:#FFFFFF;}
</style>
<g>
	<g>
		<path class="st0" d="M-380.6,397.9c1.8,0,3.2-1.4,3.2-3.2c0-1.1,0.4-2.1-0.5-2.7c-0.5-0.3-2.8-0.5-3.4-0.5c-0.8,0-1.8,0.6-2.4,1.1
			c-0.7,0.6-0.1,1.1-0.1,2.1C-383.8,396.4-382.4,397.9-380.6,397.9z M-382.8,394.3c0.6-0.1,1,0.1,1,0.1l1-0.5c0,0-0.5,0.7-0.1,0.5
			c1-0.3,2.1-0.2,2.7-0.1c0,0.1,0,0.3,0,0.4c0,1.3-1,2.4-2.3,2.4c-1.3,0-2.3-1.1-2.3-2.4C-382.9,394.6-382.8,394.5-382.8,394.3z"/>
		<path class="st0" d="M-364.9,394.2c0-0.2,0-0.4-0.1-0.5c-0.1-1.1-1.1-3.4-4-3.3c-2.5,0.1-3,1.9-3.2,3.1c-0.1,0.3-0.1,0.6-0.2,0.9
			c-3.2,0.6-2.9,3.8-0.9,3.9c-0.2-1.7,0.6-2.7,0.9-3.1c0.3,1.8,1.8,3.1,3.7,3.1c1.8,0,3.2-1.2,3.6-2.9c0.3,0.5,0.8,1.6,0.7,2.8
			C-361.2,398.2-362.7,394.6-364.9,394.2z M-368.6,397.2c-1.5,0-2.6-1.2-2.7-2.6c0.5-0.2,0.9-1.1,0.9-1.1s0.3,0.1,0.3,1.1
			c0.6,0.2,1.5-1.6,1.5-1.6v1.4c0.6,0.2,2.5-0.1,2.5-0.1l0.1,0.1c0,0,0,0.1,0,0.1C-366,396-367.2,397.2-368.6,397.2z"/>
		<polygon class="st0" points="-367.9,398.3 -369.4,398.3 -370.7,398.3 -374.6,403 -378.3,398.4 -382.6,398.4 -387,403.3 
			-386.1,404.2 -382.9,401.5 -382.9,406.8 -382.3,406.8 -382.3,410.8 -382.7,410.8 -382.7,411.2 -380.8,411.2 -380.8,410.8 
			-380.8,406.8 -380.1,406.8 -380.1,410.8 -380.1,411.2 -378.3,411.2 -378.3,410.8 -378.7,410.8 -378.7,406.8 -377.9,406.8 
			-377.9,401.6 -375.4,404.2 -374.3,404 -373.8,404.1 -370.9,400.8 -370.7,402.1 -373.4,406.7 -370.3,406.7 -370.3,410.7 
			-370.7,410.7 -370.7,411.2 -368.9,411.2 -368.9,410.7 -368.9,410.7 -368.9,406.7 -368.2,406.7 -368.2,410.7 -368.2,411.2 
			-366.3,411.2 -366.3,410.7 -366.7,410.7 -366.7,406.7 -364.4,406.7 -366.7,402.1 -366.6,400.5 -364.3,403.5 -362.8,403.2 
			-366.4,398.3 		"/>
	</g>
</g>
</svg>
