<?xml version="1.0" encoding="utf-8"?>
<!-- Generator: Adobe Illustrator 19.0.0, SVG Export Plug-In . SVG Version: 6.00 Build 0)  -->
<svg version="1.1" id="Capa_1" xmlns="http://www.w3.org/2000/svg" xmlns:xlink="http://www.w3.org/1999/xlink" x="0px" y="0px"
	 viewBox="-143 145.4 511.6 511.6" style="enable-background:new -143 145.4 511.6 511.6;" xml:space="preserve">
<style type="text/css">
	.st0{fill:#FFFFFF;}
</style>
<g>
	<g>
		<path class="st0" d="M-124.2,273.9c-12.6,12.6-18.8,27.6-18.8,45.1v237.5c0,17.5,6.3,32.5,18.8,45.1
			c12.6,12.6,27.6,18.8,45.1,18.8h9.1V255H-79C-96.6,255-111.6,261.3-124.2,273.9z"/>
		<path class="st0" d="M222.4,209.3c0-7.6-2.7-14.1-8-19.4c-5.3-5.3-11.8-8-19.4-8H30.6c-7.6,0-14.1,2.7-19.4,8
			c-5.3,5.3-8,11.8-8,19.4V255h-45.7v365.4h310.6V255h-45.7L222.4,209.3L222.4,209.3z M39.7,218.5h146.2V255H39.7V218.5z
			 M222.4,465.1c0,2.7-0.9,4.9-2.6,6.6c-1.7,1.7-3.9,2.6-6.6,2.6h-64v64c0,2.7-0.9,4.9-2.6,6.6c-1.7,1.7-3.9,2.6-6.6,2.6H85.4
			c-2.7,0-4.9-0.9-6.6-2.6c-1.7-1.7-2.6-3.9-2.6-6.6v-64h-64c-2.7,0-4.9-0.9-6.6-2.6c-1.7-1.7-2.6-3.9-2.6-6.6v-54.8
			c0-2.7,0.9-4.9,2.6-6.6c1.7-1.7,3.9-2.6,6.6-2.6h64v-64c0-2.7,0.9-4.9,2.6-6.6c1.7-1.7,3.9-2.6,6.6-2.6h54.8
			c2.7,0,4.9,0.9,6.6,2.6c1.7,1.7,2.6,3.9,2.6,6.6v64h64c2.7,0,4.9,0.9,6.6,2.6c1.7,1.7,2.6,3.9,2.6,6.6L222.4,465.1L222.4,465.1
			L222.4,465.1z"/>
		<path class="st0" d="M349.8,273.9c-12.6-12.6-27.6-18.8-45.1-18.8h-9.1v365.4h9.1c17.5,0,32.5-6.3,45.1-18.8
			c12.6-12.6,18.8-27.6,18.8-45.1V319C368.6,301.5,362.3,286.4,349.8,273.9z"/>
	</g>
</g>
</svg>
