<?xml version="1.0" encoding="iso-8859-1"?>
<!-- Generator: Adobe Illustrator 19.0.0, SVG Export Plug-In . SVG Version: 6.00 Build 0)  -->
<svg xmlns="http://www.w3.org/2000/svg" xmlns:xlink="http://www.w3.org/1999/xlink" version="1.1" id="Layer_1" x="0px" y="0px" viewBox="0 0 512 512" style="enable-background:new 0 0 512 512;" xml:space="preserve" width="512px" height="512px">
<g>
	<g>
		<path d="M495.304,100.174H16.696C7.475,100.174,0,107.649,0,116.87v378.435C0,504.525,7.475,512,16.696,512h478.609    c9.22,0,16.696-7.475,16.696-16.696V116.87C512,107.649,504.525,100.174,495.304,100.174z M384,133.565    c9.22,0,16.696,7.475,16.696,16.696S393.22,166.957,384,166.957s-16.696-7.475-16.696-16.696S374.78,133.565,384,133.565z     M205.913,133.565h100.174c9.223,0,16.696,7.473,16.696,16.696c0,9.223-7.473,16.696-16.696,16.696H205.913    c-9.223,0-16.696-7.473-16.696-16.696S196.69,133.565,205.913,133.565z M116.87,133.565c9.22,0,16.696,7.475,16.696,16.696    s-7.475,16.696-16.696,16.696s-16.696-7.475-16.696-16.696S107.649,133.565,116.87,133.565z M445.217,428.522    c0,9.22-7.475,16.696-16.696,16.696H83.478c-9.22,0-16.696-7.475-16.696-16.696V217.043c0-9.22,7.475-16.696,16.696-16.696    h345.043c9.22,0,16.696,7.475,16.696,16.696V428.522z" fill="#FFFFFF"/>
	</g>
</g>
<g>
	<g>
		<path d="M205.913,0H72.348c-9.22,0-16.696,7.475-16.696,16.696v50.087h166.957V16.696C222.609,7.475,215.133,0,205.913,0z" fill="#FFFFFF"/>
	</g>
</g>
<g>
	<g>
		<path d="M439.652,0H306.087c-9.22,0-16.696,7.475-16.696,16.696v50.087h166.957V16.696C456.348,7.475,448.873,0,439.652,0z" fill="#FFFFFF"/>
	</g>
</g>
<g>
	<g>
		<path d="M100.174,233.739V256v11.13v33.391v11.13v100.174h311.652V311.652v-11.13V267.13V256v-22.261H100.174z M367.304,300.522    H144.696c-9.223,0-16.696-7.473-16.696-16.696c0-9.223,7.473-16.696,16.696-16.696h222.609c9.223,0,16.696,7.473,16.696,16.696    C384,293.049,376.527,300.522,367.304,300.522z" fill="#FFFFFF"/>
	</g>
</g>
<g>
</g>
<g>
</g>
<g>
</g>
<g>
</g>
<g>
</g>
<g>
</g>
<g>
</g>
<g>
</g>
<g>
</g>
<g>
</g>
<g>
</g>
<g>
</g>
<g>
</g>
<g>
</g>
<g>
</g>
</svg>
