<?xml version="1.0" encoding="utf-8"?>
<!-- Generator: Adobe Illustrator 19.0.0, SVG Export Plug-In . SVG Version: 6.00 Build 0)  -->
<svg version="1.1" id="Capa_1" xmlns="http://www.w3.org/2000/svg" xmlns:xlink="http://www.w3.org/1999/xlink" x="0px" y="0px"
	 viewBox="-291 293.2 215.8 215.8" style="enable-background:new -291 293.2 215.8 215.8;" xml:space="preserve">
<style type="text/css">
	.st0{fill:#FFFFFF;}
</style>
<g id="XMLID_40_">
	<path id="XMLID_216_" class="st0" d="M-119.7,376.9c-1.3-1.1-2.6-2.3-3.8-3.6c-2.8-3.1-5.3-6.4-5.9-10.8c-0.2-1.3,0-2.2,1.1-3
		c1.2-0.9,2.2-2.1,2.3-3.8c-0.9,0.6-1.7,1.4-2.6,1.8c-0.3,0.1-0.6,0.4-0.9,0.2c-0.3-0.2-0.2-0.6-0.1-0.9c0.8-5.8,0.7-11.6-0.3-17.3
		c-0.1-0.7,0-1.3,0.2-1.9c1.6-4,3.2-8,4.9-11.9c0.7-1.5,0.4-2.5-0.7-3.6c-4-4.3-8.4-8.2-13.2-11.5c-9.7-6.8-20.3-11.5-31.8-14.5
		c-5.3-1.4-10.6-2.3-16.1-2.6c-3.9-0.2-7.9-0.4-11.8-0.1c-3.6,0.3-7.2,1-10.8,1.9c-6.8,1.9-13,4.9-18.2,9.9c-2.9,2.7-5,6-7.1,9.4
		c-0.3,0.5-0.5,0.7-0.8,0.7c0,0.4-0.2,0.9-0.4,1.3c0,0,0,0.1-0.1,0.1c0,0.2-0.1,0.4-0.2,0.6c-3.8,7.2-6.6,14.8-8.3,22.8
		c-0.1,0.5-0.2,0.9-0.6,1.1c0,0.2,0,0.4-0.1,0.6c0.2,0.4,0.1,0.9,0,1.4c-1.9,9.1-2.7,18.4-3.1,27.7c-0.3,7.1,0,14.2,0.4,21.3
		c0.7,13.2,2.4,26.2,4.5,39.2c1.4,8.2,3.1,16.4,4.9,24.5c1.4,6.1,2.9,12.2,4.7,18.2c0.3,1.1,0.7,1.7,1.9,1c1.4-0.8,2.8-1.4,4.3-2.1
		c7.2-3.3,14.4-3.4,21.6-0.3c4.7,2,8.8,5,12.8,8c7.1,5.3,13.8,11.1,21.4,15.7c9.9,6.1,20.5,10.4,32.1,12.3c0.4,0.1,1,0.3,1.3-0.1
		c0.3-0.4-0.1-0.8-0.3-1.2c-3.8-8.7-7.7-17.4-11.5-26.1c-4.4-10.2-8.9-20.4-13-30.8c-1.4-3.6-2-7.3-1.8-11.1
		c0.2-4.2,0.8-8.4,1.6-12.5c0.5-3,1-6,2.7-8.6c3.4-5.3,8.7-6.7,14.5-6.7c3.9,0,7.8,0.9,11.7,1c5.8,0.2,8.2-3,7-8.6
		c-0.5-2.2-0.3-4.1,1.4-5.7c0.7-0.7,1.3-1.6,0.7-2.5c-0.8-1.5-0.1-2.4,0.7-3.5c1.5-1.8,1.4-1.9,0-3.7c-1.2-1.6-0.8-3.3,1.1-4.1
		c1.4-0.6,2.8-1.4,3.8-2.6C-117.7,380.2-118,378.4-119.7,376.9z M-185.9,367c1.7-0.8,3.5-1.4,5.3-1.9c-1.4,1-3,1.6-4.3,2.7
		c-5.4,4.4-6.8,10.5-3.8,16.7c1.8,3.8,4.8,6.6,7.8,9.5c3.2,3,6.7,5.6,9.6,8.8c2.8,3,5.2,6.2,6,10.3c0.1,0.3,0.1,0.6,0.2,1
		c0,0.1,0,0.2-0.1,0.6c-1-3-2.5-5.4-4.4-7.6c-2.5-2.9-5.6-4.9-8.7-7.1c-4.1-3-8.1-6-11.6-9.7c-1.7-1.8-3.1-3.7-4.2-5.9
		c-2.7-5.5-1.5-10.6,3.3-14.4C-189.2,368.7-187.6,367.8-185.9,367z M-177.6,429.7c0.1,0.5,0.6,0.7,1.1,0.7c1,0.1,1.8-0.4,2.6-1
		c3.1-2.6,2.5-9.1-1-11.1c-2.1-1.1-4.3-0.8-5.6,1.2c-2,3-2.7,6.4-2,9.9c1.1,5.3,5.9,6.9,10,3.4c5.9-5,6-15.8-2.2-19.8
		c-2.6-1.3-4-1.5-9.8-1.5c-2.5,0.1-5.5-0.2-8.4-1.4c-5.4-2.4-5.3-8.3-3.1-11.3c1.4-1.8,4.1-2.6,6.3-1.9c2.6,0.8,4.3,2.9,4.4,5.4
		c0.2,3.3-0.9,5-3.6,5.4c-1.2,0.2-2.3-0.2-3.1-1.1c-0.9-1-1-2.2-0.6-3.4c0.3-1,1.1-1.6,2.2-1.3c1.2,0.4,1,1.4,0.8,2.4
		c-0.1,0.4-0.7,0.7-0.3,1.1c0.5,0.4,1.1,0,1.5-0.4c0.7-0.7,1.1-1.6,0.8-2.7c-0.4-1.2-1.3-1.9-2.6-2c-1.6-0.1-3.2,0.8-3.9,2.3
		c-0.7,1.5-0.5,3.2,0.7,4.4c1.9,2,4.4,2.2,6.9,2.3c3.4,0.2,6.7-0.2,10.1,0.6c8.4,1.9,11.7,9.6,11,16.2c-0.3,2.8-1.1,5.4-2.7,7.8
		c-3.5,5-10.8,5.5-15.6,1.2c-3.3-3-4.1-6.5-2.7-10.6c1-3.1,2.9-5.6,5.6-7.4c4.1-2.7,9.4-0.7,10.5,4.1c1,4.1-0.5,8.1-3.6,10
		c-1.9,1.2-3.9,1.1-5-0.3c-1.4-1.7-1.5-4.7-0.2-6.2c0.7-0.8,1.7-1.2,2.7-0.8c1.2,0.4,1.4,1.5,1.4,2.7c0,1.1-0.4,2-1.5,2.4
		C-177,429.3-177.7,429-177.6,429.7z M-207.4,389.8c1.7-0.6,2.7-2.6,2.5-4.6c-0.2-1.4-1.7-2.9-3.2-3.1c-0.8-0.1-1.5,0.2-2.1,0.6
		c-1.6,1.2-2.9,4.6-2.4,6.6c0.6,2.4,2.6,3.6,5,3c2.8-0.7,4.9-3.3,5.2-6.5c0.2-2.3-1.5-5.2-3.9-6.5c-1.7-0.9-3.5-1.4-5.5-1.5
		c-2.9-0.2-5.8-0.8-7.9-3.1c-1.2-1.3-1.2-3.8,0-5.3c1.1-1.4,3.7-1.7,5.4-0.8c1.7,0.9,2.5,2.7,1.9,4.5c-0.5,1.7-2.5,2.4-4,1.6
		c-0.4-0.2-0.8-0.5-1-1c-0.4-0.8-0.3-1.6,0.3-2.2c0.4-0.4,1-0.4,1.4-0.1c0.8,0.6,0.2,1.3-0.1,2c1,0.2,1.5-0.2,1.7-1
		c0.2-0.8-0.2-1.4-1-1.8c-1.1-0.6-2.6-0.2-3.4,0.8c-0.7,1-0.6,2.2,0.4,3.1c1.3,1.2,3,1.5,4.7,1.8c2.2,0.3,4.4,0.5,6.4,1.3
		c3.4,1.3,5.6,3.6,6.1,7.4c0.4,3.1-2,7.7-4.9,9c-2.9,1.3-6.6,0.3-8.9-2.3c-1.5-1.8-1.6-3.8-0.7-5.8c1-2.3,2.8-3.8,5.3-4.6
		c1.9-0.6,3.6-0.1,5,1.3c1.5,1.5,1.4,3.4,0.7,5.3c-0.7,1.8-2.1,2.8-4,3.1c-1,0.2-2-0.2-2.4-1.3c-0.4-1-0.5-2.1,0.3-3.1
		c0.5-0.7,1.3-0.7,2.1-0.5c0.6,0.1,0.8,0.6,0.9,1.2c0.1,0.8-0.3,1.3-1,1.7c-0.3,0.2-0.7,0-0.8,0.5C-208.6,390-208,390-207.4,389.8z
		 M-200.5,392.9c1.6-1.7,3.5-2.9,5.7-3.6c-4.2,4.2-7.2,9-6.3,15.2c0.9,6.5,5.3,9.8,11.1,11.7c-3.8-0.5-7.5-1.3-10.6-3.7
		c-1.9-1.4-3.1-3.3-3.4-5.6C-204.8,401.8-204.2,396.9-200.5,392.9z M-183.2,404.7c0-1.5,0.8-2.6,1.9-2.6c1.1,0,1.9,1.1,1.9,2.5
		c0,1.5-0.8,2.6-1.9,2.6C-182.4,407.2-183.2,406.2-183.2,404.7z M-222.9,408.8l-5.1-10.2c-4.9-11.3-9.4-22.7-12.1-34.7
		c-1.3-5.8-2.1-11.7-1.9-17.7c0.4-10,3.9-18.5,11.7-25c6-5,14.8-6,21-2.4c5.9,3.4,9,10.6,7.6,17.8c-1.2,6.1-6.2,10.7-13,11.7
		c-4,0.6-7.6-0.2-10.2-3.5c-2.5-3.2-2.6-8.6-0.3-11.8c1.8-2.5,6.1-3.9,9.1-3.1c2.6,0.8,4.1,3.1,3.7,5.6c-0.4,2.7-3,4.6-5.9,4.5
		c-2.3-0.1-4-1.1-5.3-3.3c-0.7,4.1,0.9,6.5,4.5,7.1c2.4,0.4,4.8,0.4,7.1-0.4c3.4-1.2,5-3.8,5.6-7.3c1-5.9-3.1-12.6-8.8-14.2
		c-3.5-1-6.8,0-10,1.6c-7.3,3.7-10.6,10-11.8,17.7c-1.8,12.1,0.3,23.8,3.9,35.3c2.3,7.6,5.5,14.9,9.3,22l1.8,3.5
		c6.1,10.7,13.3,20.5,21.6,29.5c5.8,6.4,12.3,12,18.6,17.9c10.5,9.9,19.6,20.8,25.2,34.3c1.8,4.5,3.2,9.1,3.5,14
		c0,0.1,0,0.1-0.1,0.3c-3.7-14.9-12.8-26.3-23.6-36.5c-7.7-7.3-15.5-14.4-22.8-22.1c-8.5-8.9-16.2-18.4-22.4-29.1 M-234.1,411
		c-2-3.4-2.8-7.2-3.5-11c-0.6-3.4-0.4-6.8-0.3-10.2c0-0.2,0.1-0.3,0.1-0.5c0.5,0.2,0.5,0.6,0.6,0.9c0.8,2.5,1.4,5,2.3,7.5l7.9,17.2
		c2.9,5.9,7,11,11.6,15.8c0.2,0.2,0.5,0.3,0.4,0.8c-2.2-1.3-4.3-2.7-6.2-4.3c-5.1-4.1-9.3-9.1-12.3-14.9 M-238.8,421.2
		c0-1.8,1.1-3.1,2.5-3.1c1.4,0,2.6,1.5,2.6,3.3c0,1.8-1.2,3.3-2.6,3.3C-237.7,424.6-238.9,423-238.8,421.2z M-208,459.1
		c-1.8,1.6-4.4,0.8-5.1-1.6c-0.4-1.5-0.4-3.1,0.5-4.6c0.9-1.5,2.1-2.1,3.6-1.9c1.2,0.2,2.2,1.3,2.5,2.8c0.1,0.4,0.1,0.8,0.1,0.9
		C-206.3,456.7-206.9,458-208,459.1z M-201.7,462.6c-1,0-1.9-1-1.9-2.4c0-1.9,0.9-3.1,2.2-3.1c1.2,0,2,1,2,2.4
		C-199.4,461.1-200.5,462.5-201.7,462.6z M-165.6,483c-4.9-6.2-10.7-11.6-16.7-16.6c-9.2-7.7-19-14.7-29-21.2
		c-2.8-1.8-5.8-3.5-9.1-4.3c-6.9-1.7-11.5,2.9-9.9,9.8c1.3,6,6.5,7.1,10.5,5.7c1.2-0.4,2.1-1.2,2-3c-1.3,1.1-2.3,2-3.8,2
		c-1.8-0.1-3.1-0.8-3.8-2.4c-0.6-1.6-0.4-3.2,0.8-4.6c1.2-1.3,2.8-1.3,4.3-0.8c3.2,1.1,5.3,5.2,4.5,8.5c-0.8,3.3-4.1,5.4-7.6,5.2
		c-6-0.5-13.1-6.4-11.9-14.7c0.1-1,0.2-2,0.4-2.9c1-5,4.3-7.8,9.4-8.1c4.2-0.2,8.1,0.8,11.6,3.1c11,7.4,21.6,15.3,31.4,24.1
		c6.1,5.5,11.8,11.3,16.7,18c2.1,2.9,4,6,5.2,9.4C-162.1,487.7-163.7,485.3-165.6,483z M-158.1,471.6c0.1,0.4,0.3,0.7,0.4,1.1
		c0.1,0.2,0.1,0.3,0,0.6c-0.9-1.5-1.8-3.1-2.7-4.6c-2.9-5-6.5-9.5-10.6-13.6c-13.5-13.3-26.2-27.5-37.8-42.5
		c-5.6-7.3-11-14.8-14.6-23.5c-2-4.7-3.4-9.7-3.7-14.8c-0.7-12.6,5.6-21.6,18.2-25.7c4.4-1.4,8.7-1.5,12.9,1
		c5.1,3.1,7.7,10.4,5.3,15.8c-3.2,7.1-13.1,11-20,3.7c-2-2.2-2.6-5.8-1.4-8.2c1.1-2.4,3.9-3.9,6.7-3.8c2.1,0.1,4.1,2,4.2,4
		c0.2,2.1-1.2,3.8-3.3,4.2c-1,0.2-1.8,0-3.9-1.2c1.3,3.5,4.8,5.3,8.1,4.2c3.4-1.1,6.5-4.8,6.6-8c0.2-4.4-3.1-8.1-7.9-8.9
		c-7.4-1.3-15.9,3.1-19.6,10.1c-2.8,5.3-3,10.8-2.1,16.5c1.6,9.1,5.6,17.1,10.4,24.8c5.6,8.9,12.2,17.1,19.2,24.9
		c6.2,7,13,13.4,19.3,20.2C-167.6,455-161.5,462.4-158.1,471.6z M-167.4,401.3c-2.8-3.5-6.5-5.9-9.8-8.8c-2.9-2.6-5.8-5.2-7.6-8.8
		c-3.9-7.7,0.4-16.4,9-17.9c7-1.3,14.1,4.6,13.9,11.7c-0.2,5.6-5.5,10.6-11,10.2c-3.3-0.2-6.7-3.7-6.6-6.8c0-1.8,1.1-3.2,2.9-3.7
		c1.6-0.5,3.5,0.2,4.4,1.7c0.9,1.5,0.8,3.5-0.4,4.8c-0.4,0.4-1,0.6-1.3,1.4c1.1,0.4,2.2,0.4,3.3-0.1c3-1.3,5.2-5.6,4.6-8.9
		c-0.7-3.6-3.7-6.5-7.3-6.5c-4,0-7.1,2-9.2,5.2c-1.9,3-1.2,5.9,0.5,8.8c2.3,4,5.8,7.1,9.3,10.1c4.7,3.9,8.6,9.4,10,14.6
		C-164.2,405.7-165.7,403.4-167.4,401.3z M-161.7,396.6c0.4,2.5,0.8,4.8,1.8,6.9c1,2.1,2.1,4.2,3.8,5.8
		C-161.1,406.9-163.2,402.3-161.7,396.6z M-140.8,357.4c-4.7,10.3-9.3,20.7-12.3,31.7c-0.8,2.8-1.3,5.7-1,8.6
		c0.4,3.2,1.4,6.2,4.7,7.6c1.8,0.8,4.1,0.3,5.4-1.2c1.6-1.8,1.1-4-1.2-5.1c-0.3,0.5,0.1,1,0.1,1.5c0,1.6-0.6,2.6-2.1,3.1
		c-1.2,0.4-3-0.1-3.7-1.1c-1.6-2.2-0.4-5.5,2.2-6c4.6-1,8.3,2.9,7,7.5c-1.5,5.3-7.7,6.8-11.8,2.8c-2.3-2.3-3.5-5.2-3.9-8.4
		c-0.6-4.2,0.2-8.2,1.3-12.2c2.4-8.6,6.3-16.6,10.6-24.4c3.1-5.7,6.5-11.2,10.3-16.5C-137,349.4-138.9,353.4-140.8,357.4z"/>
</g>
</svg>
